<svg width="705" height="116" viewBox="0 0 705 116" fill="none" xmlns="http://www.w3.org/2000/svg">
<path fill-rule="evenodd" clip-rule="evenodd" d="M704.853 115.832H203.84V109.832H704.853V115.832Z" fill="#00FFCC"/>
<path d="M545.418 98.675V32.24H564.123V98.675H545.418ZM545.289 21.275V6.698H564.252V21.275H545.289Z" fill="#020202"/>
<path d="M524.76 98.675H506.055V6.44H524.76V98.675ZM521.535 98.675H477.03C465.506 98.675 456.519 95.837 450.069 90.161C443.619 84.485 440.394 76.272 440.394 65.522C440.394 54.686 443.619 46.43 450.069 40.754C456.519 35.078 465.506 32.24 477.03 32.24H520.245V47.075H477.03C471.44 47.075 467.14 48.623 464.13 51.719C461.206 54.729 459.744 59.33 459.744 65.522C459.744 71.628 461.206 76.229 464.13 79.325C467.14 82.335 471.44 83.84 477.03 83.84H521.535V98.675Z" fill="#020202"/>
<path d="M365.087 98.675C357.519 98.675 351.972 96.783 348.446 92.999C345.006 89.215 343.286 84.313 343.286 78.293V32.24H361.991V76.1C361.991 81.26 364.571 83.84 369.731 83.84H396.563C401.723 83.84 404.303 81.26 404.303 76.1V32.24H423.008V78.293C423.008 84.313 421.245 89.215 417.719 92.999C414.279 96.783 408.775 98.675 401.207 98.675H365.087Z" fill="#020202"/>
<path d="M214.14 98.675L255.678 6.44H287.541L329.079 98.675H306.633L297.861 79.196H245.358L236.586 98.675H214.14ZM252.84 62.426H290.379L272.448 22.565H270.771L252.84 62.426Z" fill="#020202"/>
<path fill-rule="evenodd" clip-rule="evenodd" d="M540.418 103.675V27.24H569.123V103.675H540.418ZM540.289 26.275V1.698H569.252V26.275H540.289ZM545.418 98.675H564.123V32.24H545.418V98.675ZM545.289 21.275H564.252V6.698H545.289V21.275Z" fill="#00FFCC"/>
<path fill-rule="evenodd" clip-rule="evenodd" d="M529.76 103.675H477.03C464.71 103.675 454.401 100.634 446.766 93.9146C438.976 87.0594 435.394 77.3198 435.394 65.522C435.394 53.6527 438.967 43.8632 446.766 37.0004C454.401 30.2814 464.71 27.24 477.03 27.24H501.055V1.44H529.76V103.675ZM506.055 32.24H477.03C465.506 32.24 456.519 35.078 450.069 40.754C443.619 46.43 440.394 54.686 440.394 65.522C440.394 76.272 443.619 84.485 450.069 90.161C456.519 95.837 465.506 98.675 477.03 98.675H524.76V6.44H506.055V32.24ZM506.055 47.075H477.03C471.44 47.075 467.14 48.623 464.13 51.719C461.206 54.729 459.744 59.33 459.744 65.522C459.744 71.628 461.206 76.229 464.13 79.325C467.14 82.335 471.44 83.84 477.03 83.84H506.055V47.075ZM501.055 52.075H477.03C472.375 52.075 469.529 53.3391 467.716 55.2029C466.051 56.9172 464.744 60.0183 464.744 65.522C464.744 70.8534 466.011 74.0008 467.717 75.8402C469.525 77.6186 472.379 78.84 477.03 78.84H501.055V52.075Z" fill="#00FFCC"/>
<path fill-rule="evenodd" clip-rule="evenodd" d="M348.446 92.999C351.972 96.783 357.519 98.675 365.087 98.675H401.207C408.775 98.675 414.279 96.783 417.719 92.999C421.245 89.215 423.008 84.313 423.008 78.293V32.24H404.303V76.1C404.303 81.26 401.723 83.84 396.563 83.84H369.731C364.571 83.84 361.991 81.26 361.991 76.1V32.24H343.286V78.293C343.286 84.313 345.006 89.215 348.446 92.999ZM421.397 96.3858C425.912 91.5292 428.008 85.3458 428.008 78.293V27.24H399.303V76.1C399.303 77.9001 398.859 78.3434 398.833 78.3691L398.832 78.3698C398.807 78.3956 398.363 78.84 396.563 78.84H369.731C367.931 78.84 367.488 78.3957 367.462 78.3699L367.461 78.3691C367.436 78.3434 366.991 77.9001 366.991 76.1V27.24H338.286V78.293C338.286 85.3229 340.325 91.4985 344.746 96.3624L344.767 96.3851L344.788 96.4076C349.626 101.6 356.78 103.675 365.087 103.675H401.207C409.49 103.675 416.632 101.611 421.397 96.3858Z" fill="#00FFCC"/>
<path fill-rule="evenodd" clip-rule="evenodd" d="M206.405 103.675L252.446 1.44H290.773L336.814 103.675H303.401L294.629 84.196H248.59L239.818 103.675H206.405ZM245.358 79.196H297.861L306.633 98.675H329.079L287.541 6.44H255.678L214.14 98.675H236.586L245.358 79.196ZM290.379 62.426L272.448 22.565H270.771L252.84 62.426H290.379ZM260.572 57.426H282.647L271.609 32.8889L260.572 57.426Z" fill="#00FFCC"/>
<path d="M157.607 74.745V58.07H201.977V74.745H157.607Z" fill="#020202"/>
<path d="M50.6467 108.675V34H115.752C124.258 34 130.445 36.1267 134.312 40.38C138.275 44.5367 140.257 50.0467 140.257 56.91V108.675H119.232V59.375C119.232 53.575 116.332 50.675 110.532 50.675H71.6717V108.675H50.6467Z" fill="#020202"/>
<path d="M5 108.675V5H28.2V108.675H5Z" fill="#020202"/>
<path fill-rule="evenodd" clip-rule="evenodd" d="M157.607 74.745H201.977V58.07H157.607V74.745ZM152.607 79.745V53.07H206.977V79.745H152.607Z" fill="#00FFCC"/>
<path fill-rule="evenodd" clip-rule="evenodd" d="M50.6467 108.675H71.6717V50.675H110.532C116.332 50.675 119.232 53.575 119.232 59.375V108.675H140.257V56.91C140.257 50.0467 138.275 44.5367 134.312 40.38C130.445 36.1267 124.258 34 115.752 34H50.6467V108.675ZM76.6717 55.675V113.675H45.6467V29H115.752C124.961 29 132.778 31.2933 137.971 36.972C142.961 42.2294 145.257 49.0495 145.257 56.91V113.675H114.232V59.375C114.232 57.2457 113.703 56.5671 113.521 56.3855C113.34 56.2039 112.661 55.675 110.532 55.675H76.6717Z" fill="#00FFCC"/>
<path fill-rule="evenodd" clip-rule="evenodd" d="M0 113.675V0H33.2V113.675H0ZM5 108.675H28.2V5H5V108.675Z" fill="#00FFCC"/>
<path fill-rule="evenodd" clip-rule="evenodd" d="M628.838 32.9483C624.932 29.9725 619.444 29.9123 615.469 32.8029L614.293 31.1855C618.981 27.7756 625.441 27.8456 630.05 31.3574L628.838 32.9483Z" fill="#00FFCC"/>
<path fill-rule="evenodd" clip-rule="evenodd" d="M675.242 31.9483C671.336 28.9724 665.848 28.9123 661.874 31.8029L660.697 30.1855C665.386 26.7756 671.845 26.8456 676.454 30.3574L675.242 31.9483Z" fill="#00FFCC"/>
<path d="M613.85 4.175C613.85 2.24201 615.417 0.675003 617.35 0.675003H672.222C674.155 0.675003 675.722 2.24201 675.722 4.175C675.722 6.108 674.155 7.675 672.222 7.675H617.35C615.417 7.675 613.85 6.108 613.85 4.175Z" fill="#00FFCC"/>
<path fill-rule="evenodd" clip-rule="evenodd" d="M672.222 1.675H617.35C615.969 1.675 614.85 2.79429 614.85 4.175C614.85 5.55571 615.969 6.675 617.35 6.675H672.222C673.603 6.675 674.722 5.55572 674.722 4.175C674.722 2.79429 673.603 1.675 672.222 1.675ZM617.35 0.675003C615.417 0.675003 613.85 2.24201 613.85 4.175C613.85 6.108 615.417 7.675 617.35 7.675H672.222C674.155 7.675 675.722 6.108 675.722 4.175C675.722 2.24201 674.155 0.675003 672.222 0.675003H617.35Z" fill="#020202"/>
<path d="M618.668 41.6178C618.668 39.4086 620.459 37.6178 622.668 37.6178H623.977C626.186 37.6178 627.977 39.4086 627.977 41.6178V52.752C627.977 54.9611 626.186 56.752 623.977 56.752H622.668C620.459 56.752 618.668 54.9611 618.668 52.752V41.6178Z" fill="#020202"/>
<path fill-rule="evenodd" clip-rule="evenodd" d="M623.977 39.6178H622.668C621.564 39.6178 620.668 40.5132 620.668 41.6178V52.752C620.668 53.8566 621.564 54.752 622.668 54.752H623.977C625.082 54.752 625.977 53.8566 625.977 52.752V41.6178C625.977 40.5132 625.082 39.6178 623.977 39.6178ZM622.668 37.6178C620.459 37.6178 618.668 39.4086 618.668 41.6178V52.752C618.668 54.9611 620.459 56.752 622.668 56.752H623.977C626.186 56.752 627.977 54.9611 627.977 52.752V41.6178C627.977 39.4086 626.186 37.6178 623.977 37.6178H622.668Z" fill="#00FFCC"/>
<path d="M663.359 41.2961C663.359 39.087 665.15 37.2961 667.359 37.2961H668.668C670.877 37.2961 672.668 39.087 672.668 41.2961V52.4303C672.668 54.6395 670.877 56.4303 668.668 56.4303H667.359C665.15 56.4303 663.359 54.6394 663.359 52.4303V41.2961Z" fill="#020202"/>
<path fill-rule="evenodd" clip-rule="evenodd" d="M668.668 39.2961H667.359C666.255 39.2961 665.359 40.1915 665.359 41.2961V52.4303C665.359 53.5349 666.255 54.4303 667.359 54.4303H668.668C669.773 54.4303 670.668 53.5349 670.668 52.4303V41.2961C670.668 40.1915 669.773 39.2961 668.668 39.2961ZM667.359 37.2961C665.15 37.2961 663.359 39.087 663.359 41.2961V52.4303C663.359 54.6394 665.15 56.4303 667.359 56.4303H668.668C670.877 56.4303 672.668 54.6395 672.668 52.4303V41.2961C672.668 39.087 670.877 37.2961 668.668 37.2961H667.359Z" fill="#00FFCC"/>
<path fill-rule="evenodd" clip-rule="evenodd" d="M615.85 5.675L615.512 5.675C613.579 5.675 611.658 5.98667 609.824 6.59803L609.35 5.175L609.797 6.60685L608.546 6.99743C607.178 7.42434 605.864 8.00437 604.626 8.72649C603.48 9.39559 602.407 10.1829 601.424 11.0754L600.099 12.2791C599.019 13.2603 598.038 14.3448 597.169 15.5171C596.483 16.4434 595.869 17.4213 595.333 18.4422L595.225 18.6481C594.546 19.9426 593.98 21.2933 593.534 22.6852L593.242 23.5954L592.236 28.9584L591.593 33.6312L591.086 40.8784L588.093 40.6691L588.607 33.3215L589.274 28.477L590.328 22.8579L590.677 21.7686C591.176 20.2122 591.809 18.7017 592.569 17.2543L592.677 17.0484C593.284 15.8905 593.981 14.7814 594.759 13.7309C595.744 12.4014 596.857 11.1714 598.082 10.0586L599.407 8.85496C600.544 7.82161 601.787 6.91016 603.114 6.13552C604.546 5.2995 606.069 4.62798 607.652 4.13374L608.89 3.74734C611.025 3.03708 613.261 2.675 615.512 2.675L615.85 2.675L615.85 5.675Z" fill="#00FFCC"/>
<path fill-rule="evenodd" clip-rule="evenodd" d="M666.759 18.6749H622.941C613 18.6749 604.941 26.7338 604.941 36.6749V78.6749C604.941 88.616 613 96.6749 622.941 96.6749H666.759C676.7 96.6749 684.759 88.6161 684.759 78.6749V36.6749C684.759 26.7338 676.7 18.6749 666.759 18.6749ZM622.941 11.6749C609.134 11.6749 597.941 22.8678 597.941 36.6749V78.6749C597.941 92.482 609.134 103.675 622.941 103.675H666.759C680.566 103.675 691.759 92.482 691.759 78.6749V36.6749C691.759 22.8678 680.566 11.6749 666.759 11.6749H622.941Z" fill="#00FFCC"/>
<path d="M584.85 40.8749C584.85 34.2475 590.223 28.8749 596.85 28.8749V83.2749C590.223 83.2749 584.85 77.9023 584.85 71.2749V40.8749Z" fill="#00FFCC"/>
<path fill-rule="evenodd" clip-rule="evenodd" d="M596.85 83.2749V28.8749C596.513 28.8749 596.18 28.8888 595.85 28.916C589.69 29.4241 584.85 34.5843 584.85 40.8749V71.2749C584.85 77.5656 589.69 82.7257 595.85 83.2339C596.18 83.2611 596.513 83.2749 596.85 83.2749ZM595.85 82.2301V29.9198C590.243 30.425 585.85 35.1369 585.85 40.8749V71.2749C585.85 77.013 590.243 81.7249 595.85 82.2301Z" fill="#020202"/>
<path fill-rule="evenodd" clip-rule="evenodd" d="M673.85 5.82429L674.188 5.82429C676.121 5.82429 678.042 6.13597 679.876 6.74732L680.35 5.32429L679.903 6.75614L681.154 7.14672C682.522 7.57363 683.836 8.15366 685.074 8.87578C686.22 9.54488 687.293 10.3321 688.276 11.2247L689.6 12.4284C690.68 13.4096 691.662 14.4941 692.531 15.6664C693.217 16.5927 693.831 17.5706 694.367 18.5915L694.475 18.7974C695.154 20.0919 695.72 21.4426 696.166 22.8345L696.458 23.7447L697.464 29.1077L698.107 33.7804L698.614 41.0277L701.607 40.8184L701.093 33.4708L700.426 28.6263L699.372 23.0071L699.023 21.9179C698.524 20.3615 697.891 18.851 697.131 17.4036L697.023 17.1977C696.416 16.0398 695.719 14.9307 694.941 13.8802C693.956 12.5506 692.843 11.3207 691.618 10.2079L690.293 9.00425C689.156 7.9709 687.913 7.05945 686.586 6.28481C685.153 5.44879 683.631 4.77727 682.048 4.28303L680.81 3.89664C678.675 3.18638 676.439 2.82429 674.188 2.82429L673.85 2.82429L673.85 5.82429Z" fill="#00FFCC"/>
<path d="M704.85 41.0242C704.85 34.3968 699.477 29.0242 692.85 29.0242V83.4242C699.477 83.4242 704.85 78.0516 704.85 71.4242V41.0242Z" fill="#00FFCC"/>
<path fill-rule="evenodd" clip-rule="evenodd" d="M692.85 83.4242V29.0242C693.187 29.0242 693.52 29.0381 693.85 29.0653C700.01 29.5734 704.85 34.7335 704.85 41.0242V71.4242C704.85 77.7149 700.01 82.875 693.85 83.3831C693.52 83.4103 693.187 83.4242 692.85 83.4242ZM693.85 82.3794V30.0691C699.456 30.5743 703.85 35.2862 703.85 41.0242V71.4242C703.85 77.1623 699.456 81.8741 693.85 82.3794Z" fill="#020202"/>
<path fill-rule="evenodd" clip-rule="evenodd" d="M669.644 70.343L669.375 71.1013C669.002 72.1548 668.537 73.1735 667.986 74.1458L667.94 74.2269C667.376 75.2216 666.719 76.1608 665.978 77.0318C664.991 78.1922 663.862 79.2237 662.617 80.1019L662.275 80.3434C660.922 81.2973 659.464 82.0915 657.929 82.7103L657.018 83.0776C655.313 83.765 653.548 84.2938 651.745 84.6571L651.292 84.7485C649.555 85.0986 647.787 85.2749 646.015 85.2749C644.46 85.2749 642.908 85.1391 641.377 84.8691L639.74 84.5805C638.032 84.2793 636.352 83.838 634.717 83.2611L633.175 82.7175C631.459 82.112 629.834 81.2727 628.346 80.2235L628.174 80.1019C626.929 79.2237 625.8 78.1922 624.813 77.0318C624.072 76.1608 623.415 75.2216 622.851 74.2269L622.805 74.1458C622.254 73.1735 621.789 72.1548 621.415 71.1013L621.147 70.343L624.917 69.0069L625.186 69.7652C625.481 70.5983 625.849 71.4039 626.285 72.1728L626.331 72.2539C626.77 73.0292 627.282 73.7613 627.86 74.4403C628.629 75.3448 629.509 76.1488 630.48 76.8333L630.652 76.9549C631.839 77.7923 633.136 78.462 634.506 78.9452L636.047 79.4888C637.476 79.9927 638.943 80.3782 640.435 80.6413L642.071 80.9298C643.373 81.1595 644.693 81.2749 646.015 81.2749C647.522 81.2749 649.025 81.125 650.501 80.8273L650.955 80.736C652.516 80.4212 654.045 79.9632 655.523 79.3676L656.434 79.0003C657.683 78.497 658.869 77.8508 659.969 77.0748L660.311 76.8333C661.282 76.1488 662.162 75.3448 662.931 74.4403C663.509 73.7613 664.021 73.0292 664.46 72.2539L664.506 72.1728C664.942 71.4039 665.31 70.5983 665.605 69.7652L665.874 69.0069L669.644 70.343Z" fill="#00FFCC"/>
</svg>
