<svg width="120" height="103" viewBox="0 0 120 103" fill="none" xmlns="http://www.w3.org/2000/svg">
<path d="M30.0312 31.3192C34.3626 28.1689 40.3363 28.234 44.5937 31.4778" stroke="#00FFCC" stroke-width="2"/>
<path d="M76.4355 30.3192C80.7669 27.1689 86.7407 27.234 90.998 30.4778" stroke="#00FFCC" stroke-width="2"/>
<rect x="29.5" y="0.5" width="60.8725" height="6" rx="3" fill="#00FFCC" stroke="#020202"/>
<rect x="34.8182" y="37.9427" width="7.30889" height="17.1342" rx="3" fill="#020202" stroke="#00FFCC" stroke-width="2"/>
<path d="M79.5092 40.6211C79.5092 38.9642 80.8524 37.6211 82.5092 37.6211H83.8181C85.475 37.6211 86.8181 38.9642 86.8181 40.6211V51.7553C86.8181 53.4121 85.475 54.7553 83.8181 54.7553H82.5092C80.8524 54.7553 79.5092 53.4121 79.5092 51.7553V40.6211Z" fill="#020202" stroke="#00FFCC" stroke-width="2"/>
<path d="M4.73951 40.0988L5.2498 32.8013L5.90525 28.0427L6.93461 22.5516L7.25536 21.5519C7.72835 20.0777 8.32785 18.6472 9.04719 17.2762L9.15522 17.0703C9.72681 15.9809 10.3818 14.9374 11.1142 13.949V13.949C12.0412 12.6981 13.0884 11.5408 14.2409 10.4939L15.5657 9.29019C16.6257 8.32723 17.7835 7.47787 19.0203 6.756V6.756C20.3551 5.97693 21.7736 5.35116 23.2489 4.89059L24.5 4.5V4.5C26.487 3.83767 28.5678 3.5 30.6623 3.5L31 3.5" stroke="#00FFCC" stroke-width="3"/>
<rect x="16.5909" y="14.4999" width="86.8182" height="85" rx="21.5" stroke="#00FFCC" stroke-width="7"/>
<path d="M0.5 40.1999C0.5 34.0162 5.38069 28.9724 11.5 28.7106V82.0893C5.38069 81.8275 0.5 76.7837 0.5 70.6V40.1999Z" fill="#00FFCC" stroke="#020202"/>
<path d="M115.261 40.2481L114.75 32.9506L114.095 28.192L113.065 22.7009L112.745 21.7012C112.272 20.227 111.672 18.7964 110.953 17.4255L110.845 17.2196C110.273 16.1302 109.618 15.0867 108.886 14.0983V14.0983C107.959 12.8473 106.912 11.6901 105.759 10.6431L104.434 9.43948C103.374 8.47652 102.217 7.62717 100.98 6.9053V6.9053C99.6449 6.12623 98.2264 5.50045 96.7511 5.03988L95.5 4.64929V4.64929C93.513 3.98696 91.4322 3.64929 89.3377 3.64929L89 3.64929" stroke="#00FFCC" stroke-width="3"/>
<path d="M119.5 40.3492C119.5 34.1655 114.619 29.1217 108.5 28.8599V82.2386C114.619 81.9768 119.5 76.933 119.5 70.7492V40.3492Z" fill="#00FFCC" stroke="#020202"/>
<path d="M38.1818 68.9999L38.4506 69.7582C38.7849 70.7015 39.2012 71.6137 39.6949 72.4843L39.7408 72.5653C40.2427 73.4504 40.8271 74.286 41.4863 75.061V75.061C42.3645 76.0935 43.3692 77.0112 44.4768 77.7925L44.6492 77.9141C45.9864 78.8575 47.4473 79.6119 48.9906 80.1563L50.5318 80.6999C52.0639 81.2403 53.6379 81.6537 55.2378 81.9358L56.8741 82.2244C58.2907 82.4742 59.7265 82.5999 61.1651 82.5999V82.5999C62.8043 82.5999 64.4396 82.4367 66.0465 82.1128L66.4997 82.0215C68.1818 81.6825 69.829 81.1891 71.4205 80.5475L72.3317 80.1802C73.7234 79.6192 75.0456 78.899 76.2718 78.034L76.6142 77.7925C77.7217 77.0112 78.7265 76.0935 79.6046 75.061V75.061C80.2638 74.286 80.8482 73.4504 81.3501 72.5653L81.396 72.4843C81.8897 71.6137 82.306 70.7015 82.6404 69.7582L82.9091 68.9999" stroke="#00FFCC" stroke-width="4"/>
</svg>
